<svg width="1603" height="1603" viewBox="0 0 1603 1603" fill="none" xmlns="http://www.w3.org/2000/svg">
<g clip-path="url(#clip0_10_377)">
<rect width="1603" height="1603" fill="#1A2D35"/>
<path d="M807.303 227.414L916.132 336.733C925.144 345.786 918.728 361.218 905.954 361.212L842.987 361.183L843.051 1372.02V1378.53L836.536 1378.52L767.849 1378.37L761.362 1378.35L761.363 1371.87L761.422 361.311L698.316 361.211C685.522 361.191 679.146 345.704 688.218 336.682L798.112 227.392L802.719 222.81L807.303 227.414Z" fill="white" stroke="white" stroke-width="13"/>
<path d="M373.975 610.526C382.993 601.443 398.49 607.814 398.513 620.613L398.619 681.496C431.419 681.768 463.39 681.277 496.524 681.543C503.647 681.601 511.186 681.562 518.709 682.145C563.976 685.272 606.582 704.685 638.645 736.792L639.789 737.934C663.336 761.626 679.875 791.368 687.575 823.873L687.94 825.448L687.948 825.479L687.955 825.51C693.979 853.253 692.576 883.505 692.577 910.632L692.58 1001.37V1001.37L692.519 1371.94L692.518 1378.45L686.012 1378.44L618.096 1378.37L611.602 1378.36L611.603 1371.87L611.67 903.059C611.583 891.684 611.494 897.573 611.582 868.549C611.621 855.564 606.172 837.243 595.941 819.609C585.749 802.042 571.297 786.001 554.164 776.98C526.267 762.29 497.386 764.922 464.144 764.932L464.145 764.933L398.49 765.106L398.597 823.517C398.62 836.196 383.317 842.796 374.201 833.749C354.349 814.045 327.646 787.367 305.911 765.62C295.043 754.745 285.414 745.101 278.503 738.176C275.047 734.714 272.271 731.931 270.358 730.013C269.402 729.055 268.662 728.313 268.161 727.81C267.911 727.559 267.719 727.367 267.591 727.239C267.527 727.175 267.479 727.126 267.446 727.093L267.397 727.044L262.831 722.464L267.388 717.875L373.975 610.526Z" fill="white" stroke="white" stroke-width="13"/>
<path d="M435.929 336.075C464.321 335.481 534.691 336.283 575.461 336.378C588.13 336.407 594.79 351.583 586.076 360.888C574.65 373.088 558.293 390.522 550.036 399.174C566.135 416.227 583.367 433.061 600.591 450.124C619.271 468.629 637.907 487.376 654.699 506.671C687.354 544.193 692.505 601.521 692.505 642.818C692.505 649.703 692.448 657.083 692.391 664.396C692.333 671.719 692.276 678.975 692.276 685.657V704.854L680.613 689.605C665.891 670.357 638.697 653.766 615.537 643.792L611.321 641.976L611.622 637.396C611.822 634.355 611.941 631.31 611.979 628.262V628.229C612.47 600.666 607.412 583.423 598.175 568.646C588.641 553.394 574.595 540.52 555.636 521.561C534.592 500.516 511.65 478.501 490.497 456.9C487.389 460.08 483.256 464.183 478.821 468.533C470.888 476.316 461.529 485.352 454.059 492.532C444.834 501.399 429.564 494.82 429.564 482.084V336.209L435.929 336.075Z" fill="white" stroke="white" stroke-width="13"/>
<path d="M1229.91 610.526C1220.89 601.443 1205.4 607.814 1205.37 620.613L1205.27 681.496C1172.47 681.768 1140.49 681.277 1107.36 681.543C1100.24 681.601 1092.7 681.562 1085.18 682.145C1039.91 685.272 997.303 704.685 965.241 736.792L964.096 737.934C940.55 761.626 924.01 791.368 916.31 823.873L915.945 825.448L915.937 825.479L915.93 825.51C909.907 853.253 911.31 883.505 911.308 910.632L911.305 1001.37V1001.37L911.367 1371.94L911.368 1378.45L917.874 1378.44L985.79 1378.37L992.284 1378.36L992.283 1371.87L992.215 903.059C992.303 891.684 992.391 897.573 992.303 868.549C992.264 855.564 997.713 837.243 1007.94 819.609C1018.14 802.042 1032.59 786.001 1049.72 776.98C1077.62 762.29 1106.5 764.922 1139.74 764.932L1139.74 764.933L1205.4 765.106L1205.29 823.517C1205.27 836.196 1220.57 842.796 1229.68 833.749C1249.54 814.045 1276.24 787.367 1297.97 765.62C1308.84 754.745 1318.47 745.101 1325.38 738.176C1328.84 734.714 1331.61 731.931 1333.53 730.013C1334.48 729.055 1335.22 728.313 1335.72 727.81C1335.97 727.559 1336.17 727.367 1336.29 727.239C1336.36 727.175 1336.41 727.126 1336.44 727.093L1336.49 727.044L1341.05 722.464L1336.5 717.875L1229.91 610.526Z" fill="white" stroke="white" stroke-width="13"/>
<path d="M1167.96 336.075C1139.56 335.481 1069.19 336.283 1028.42 336.378C1015.75 336.407 1009.09 351.583 1017.81 360.888C1029.24 373.088 1045.59 390.522 1053.85 399.174C1037.75 416.227 1020.52 433.061 1003.29 450.124C984.614 468.629 965.978 487.376 949.186 506.671C916.532 544.193 911.38 601.521 911.38 642.818C911.38 649.703 911.437 657.083 911.495 664.396C911.552 671.719 911.609 678.975 911.609 685.657V704.854L923.272 689.605C937.995 670.357 965.188 653.766 988.348 643.792L992.564 641.976L992.263 637.396C992.063 634.355 991.944 631.31 991.906 628.262V628.229C991.415 600.666 996.474 583.423 1005.71 568.646C1015.24 553.394 1029.29 540.52 1048.25 521.561C1069.29 500.516 1092.23 478.501 1113.39 456.9C1116.5 460.08 1120.63 464.183 1125.06 468.533C1133 476.316 1142.36 485.352 1149.83 492.532C1159.05 501.399 1174.32 494.82 1174.32 482.084V336.209L1167.96 336.075Z" fill="white" stroke="white" stroke-width="13"/>
</g>
<defs>
<clipPath id="clip0_10_377">
<rect width="1603" height="1603" fill="white"/>
</clipPath>
</defs>
</svg>
